<svg width="130" height="34" viewBox="0 0 130 34" fill="none" xmlns="http://www.w3.org/2000/svg">
<path d="M121.821 20.1174C124.011 20.1174 125.663 20.5326 126.776 21.3629C127.907 22.1756 128.472 23.4829 128.472 25.2849V33.4999H124.815C124.815 32.7933 124.815 31.1149 124.815 31.1149H124.736C124.382 31.9099 123.808 32.5459 123.013 33.0229C122.218 33.4999 121.308 33.7384 120.284 33.7384C118.941 33.7384 117.828 33.3586 116.945 32.5989C116.061 31.8216 115.62 30.7881 115.62 29.4984C115.62 28.1381 116.105 27.0781 117.077 26.3184C118.066 25.5588 119.338 25.1789 120.893 25.1789C122.253 25.1789 123.393 25.4086 124.312 25.8679V25.6029C124.312 24.0483 123.305 23.2709 121.291 23.2709C120.089 23.2709 118.764 23.5183 117.316 24.0129L116.547 21.1244C118.243 20.4531 120.001 20.1174 121.821 20.1174ZM121.609 30.5319C122.333 30.5319 122.951 30.3376 123.464 29.9489C123.976 29.5603 124.285 29.0214 124.391 28.3324C123.578 27.9084 122.704 27.6964 121.768 27.6964C121.149 27.6964 120.655 27.8201 120.284 28.0674C119.93 28.3148 119.754 28.6769 119.754 29.1539C119.754 29.5956 119.93 29.9401 120.284 30.1874C120.637 30.4171 121.079 30.5319 121.609 30.5319Z" fill="black"/>
<path d="M107.243 16.8314H111.06V20.4884H114.372V23.6684H111.033V28.5974C111.033 29.7634 111.528 30.3464 112.517 30.3464C113.153 30.3464 113.683 30.2404 114.107 30.0284L114.981 33.2084C114.116 33.5441 113.197 33.7384 112.226 33.7914C110.689 33.8621 109.47 33.4999 108.569 32.7049C107.685 31.8923 107.243 30.5231 107.243 28.5974V23.6684H104.911V20.4884H107.243V16.8314Z" fill="black"/>
<path d="M103.312 33.4999H99.4699V26.5834C99.4699 24.5518 98.5689 23.5359 96.7669 23.5359C95.9012 23.5183 95.1857 23.8274 94.6204 24.4634C94.0727 25.0994 93.7989 25.8591 93.7989 26.7424V33.4999H90.0359V20.4089H93.6134V22.0784C94.6557 20.7181 96.0691 20.0556 97.8534 20.0909C101.493 20.0909 103.312 22.2463 103.312 26.5569V33.4999Z" fill="black"/>
<path d="M88.2209 26.5039C88.2209 27.0693 88.1679 27.6169 88.0619 28.1469H78.8929C78.9989 28.9066 79.3699 29.5073 80.0059 29.9489C80.6419 30.3729 81.3574 30.5849 82.1524 30.5849C83.495 30.5849 84.6787 30.1786 85.7034 29.3659L87.4789 31.8304C86.1185 33.1378 84.2724 33.7914 81.9404 33.7914C79.8204 33.7914 78.0802 33.2084 76.7199 32.0424C75.3772 30.8588 74.7059 29.1716 74.7059 26.9809C74.7059 24.8256 75.3949 23.1473 76.7729 21.9459C78.1685 20.7269 79.838 20.1174 81.7814 20.1174C83.6894 20.1174 85.2352 20.6828 86.4189 21.8134C87.6202 22.9264 88.2209 24.4899 88.2209 26.5039ZM83.5569 23.9069C83.0622 23.4653 82.435 23.2444 81.6754 23.2444C80.9157 23.2444 80.2797 23.4653 79.7674 23.9069C79.255 24.3309 78.9635 24.9581 78.8929 25.7884H84.2724C84.29 24.9581 84.0515 24.3309 83.5569 23.9069Z" fill="black"/>
<path d="M68.9107 14.9764H72.7002V33.4999H68.9107V14.9764Z" fill="black"/>
<path d="M59.5715 20.1174C61.7622 20.1174 63.414 20.5326 64.527 21.3629C65.6577 22.1756 66.223 23.4829 66.223 25.2849V33.4999H62.566C62.566 32.7933 62.566 31.1149 62.566 31.1149H62.4865C62.1332 31.9099 61.559 32.5459 60.764 33.0229C59.969 33.4999 59.0592 33.7384 58.0345 33.7384C56.6919 33.7384 55.5789 33.3586 54.6955 32.5989C53.8122 31.8216 53.3705 30.7881 53.3705 29.4984C53.3705 28.1381 53.8564 27.0781 54.828 26.3184C55.8174 25.5588 57.0894 25.1789 58.644 25.1789C60.0044 25.1789 61.1439 25.4086 62.0625 25.8679V25.6029C62.0625 24.0483 61.0555 23.2709 59.0415 23.2709C57.8402 23.2709 56.5152 23.5183 55.0665 24.0129L54.298 21.1244C55.994 20.4531 57.7519 20.1174 59.5715 20.1174ZM59.3595 30.5319C60.0839 30.5319 60.7022 30.3376 61.2145 29.9489C61.7269 29.5603 62.036 29.0214 62.142 28.3324C61.3294 27.9084 60.4549 27.6964 59.5185 27.6964C58.9002 27.6964 58.4055 27.8201 58.0345 28.0674C57.6812 28.3148 57.5045 28.6769 57.5045 29.1539C57.5045 29.5956 57.6812 29.9401 58.0345 30.1874C58.3879 30.4171 58.8295 30.5319 59.3595 30.5319Z" fill="black"/>
<path d="M44.9945 16.8314H48.8105V20.4884H52.123V23.6684H48.784V28.5974C48.784 29.7634 49.2786 30.3464 50.268 30.3464C50.904 30.3464 51.434 30.2404 51.858 30.0284L52.7325 33.2084C51.8668 33.5441 50.9481 33.7384 49.9765 33.7914C48.4395 33.8621 47.2205 33.4999 46.3195 32.7049C45.4361 31.8923 44.9945 30.5231 44.9945 28.5974V23.6684H42.6625V20.4884H44.9945V16.8314Z" fill="black"/>
<path d="M91.2175 3.57999V11.5H88.9135V3.57999H91.2175ZM88.7535 1.49999C88.7535 1.90532 88.8869 2.22532 89.1535 2.45999C89.4309 2.69465 89.7349 2.81199 90.0655 2.81199C90.3962 2.81199 90.6949 2.69465 90.9615 2.45999C91.2389 2.22532 91.3775 1.90532 91.3775 1.49999C91.3775 1.09465 91.2389 0.774654 90.9615 0.539988C90.6949 0.305321 90.3962 0.187988 90.0655 0.187988C89.7349 0.187988 89.4309 0.305321 89.1535 0.539988C88.8869 0.774654 88.7535 1.09465 88.7535 1.49999Z" fill="#9E9E9E"/>
<path d="M82.1479 3.61204H84.4679V4.47604C84.9692 3.77204 85.6732 3.42004 86.5799 3.42004C87.3266 3.42004 87.9719 3.66004 88.5159 4.14004L87.5559 5.96404C87.1826 5.69738 86.7612 5.56404 86.2919 5.56404C85.7692 5.56404 85.3319 5.72938 84.9799 6.06004C84.6279 6.38004 84.4519 6.82271 84.4519 7.38804V11.5H82.1479V3.61204Z" fill="#9E9E9E"/>
<path d="M76.7392 3.42004C78.0619 3.42004 79.0592 3.67071 79.7312 4.17204C80.4139 4.66271 80.7552 5.45204 80.7552 6.54004V11.5H78.5472C78.5472 11.0734 78.5472 10.06 78.5472 10.06H78.4992C78.2859 10.54 77.9392 10.924 77.4592 11.212C76.9792 11.5 76.4299 11.644 75.8112 11.644C75.0006 11.644 74.3286 11.4147 73.7952 10.956C73.2619 10.4867 72.9952 9.86271 72.9952 9.08404C72.9952 8.26271 73.2886 7.62271 73.8752 7.16404C74.4726 6.70538 75.2406 6.47604 76.1792 6.47604C77.0006 6.47604 77.6886 6.61471 78.2432 6.89204V6.73204C78.2432 5.79338 77.6352 5.32404 76.4192 5.32404C75.6939 5.32404 74.8939 5.47338 74.0192 5.77204L73.5552 4.02804C74.5792 3.62271 75.6406 3.42004 76.7392 3.42004ZM76.6112 9.70804C77.0486 9.70804 77.4219 9.59071 77.7312 9.35604C78.0406 9.12138 78.2272 8.79604 78.2912 8.38004C77.8006 8.12404 77.2726 7.99604 76.7072 7.99604C76.3339 7.99604 76.0352 8.07071 75.8112 8.22004C75.5979 8.36938 75.4912 8.58804 75.4912 8.87604C75.4912 9.14271 75.5979 9.35071 75.8112 9.50004C76.0246 9.63871 76.2912 9.70804 76.6112 9.70804Z" fill="#9E9E9E"/>
<path d="M65.2416 0.31604H67.5456V6.70004L69.8816 3.61204H72.6016V3.75604L69.7056 7.32404L73.0496 11.324V11.5H70.2816L67.5456 8.02804V11.5H65.2416V0.31604Z" fill="#9E9E9E"/>
<path d="M64.3439 7.27604C64.3439 7.61738 64.3119 7.94804 64.2479 8.26804H58.7119C58.7759 8.72671 58.9999 9.08938 59.3839 9.35604C59.7679 9.61204 60.1999 9.74004 60.6799 9.74004C61.4906 9.74004 62.2052 9.49471 62.8239 9.00404L63.8959 10.492C63.0746 11.2814 61.9599 11.676 60.5519 11.676C59.2719 11.676 58.2212 11.324 57.3999 10.62C56.5892 9.90538 56.1839 8.88671 56.1839 7.56404C56.1839 6.26271 56.5999 5.24938 57.4319 4.52404C58.2746 3.78804 59.2826 3.42004 60.4559 3.42004C61.6079 3.42004 62.5412 3.76138 63.2559 4.44404C63.9812 5.11604 64.3439 6.06004 64.3439 7.27604ZM61.5279 5.70804C61.2292 5.44138 60.8506 5.30804 60.3919 5.30804C59.9332 5.30804 59.5492 5.44138 59.2399 5.70804C58.9306 5.96404 58.7546 6.34271 58.7119 6.84404H61.9599C61.9706 6.34271 61.8266 5.96404 61.5279 5.70804Z" fill="#9E9E9E"/>
<path d="M50.336 11.4999H48.064V7.25993C48.064 6.10793 47.6107 5.53193 46.704 5.53193C46.2667 5.53193 45.92 5.7026 45.664 6.04393C45.408 6.38526 45.28 6.79593 45.28 7.27593V11.4999H42.976V3.59593H45.152V4.49193C45.5573 3.77726 46.2507 3.41993 47.232 3.41993C48.3307 3.41993 49.0987 3.9106 49.536 4.89193C49.888 4.3586 50.2667 3.97993 50.672 3.75593C51.0773 3.52126 51.5733 3.40393 52.16 3.40393C53.0987 3.40393 53.856 3.69193 54.432 4.26793C55.0187 4.84393 55.312 5.8146 55.312 7.17993V11.4999H52.992V7.22793C52.992 6.12926 52.592 5.57993 51.792 5.57993C51.3547 5.57993 51.0027 5.74526 50.736 6.07593C50.4693 6.39593 50.336 6.7906 50.336 7.25993V11.4999Z" fill="#9E9E9E"/>
<path d="M6.91254 30.8797L26.4945 24.4245C30.0455 23.3537 32.5819 20.5808 32.5819 16.9966C32.5819 13.4493 30.0735 10.6988 26.6042 9.59535L6.91254 3.11156C5.00377 2.47401 2.9123 2.91948 1.90418 4.58078C0.896065 6.24004 1.52587 8.14861 3.07137 9.43801L12.1401 16.9966L3.07137 24.5553C1.52587 25.8365 0.896065 27.7532 1.90418 29.4125C2.9123 31.0718 4.99088 31.5356 6.91254 30.8817V30.8797Z" fill="#F22929"/>
</svg>
