<svg width="24" height="24" viewBox="0 0 24 24" fill="none" xmlns="http://www.w3.org/2000/svg">
<path fill-rule="evenodd" clip-rule="evenodd" d="M7.25012 5.17401V5.25H6.9999C4.77687 5.25 3.25885 5.76457 2.37344 6.81723C1.75887 7.54788 1.53409 8.43922 1.50299 9.34675L2.83017 10.4208C3.38808 10.8798 4.44481 11.5955 5.74595 12.1935C6.82647 12.6902 8.0394 13.0891 9.25007 13.2113V14.03C9.25007 14.24 9.2501 14.4806 9.27096 14.7194C7.77935 14.5963 6.33716 14.1162 5.11947 13.5564C3.70296 12.9053 2.53757 12.1221 1.87955 11.5811L1.63605 11.3841L2.30311 18.5L2.30417 18.5099C2.41432 19.538 2.67235 20.6651 3.59029 21.5037C4.50143 22.3361 5.91305 22.75 7.9999 22.75H15.9999C18.0868 22.75 19.4984 22.3361 20.4095 21.5037C21.3274 20.6651 21.5855 19.538 21.6957 18.5099L22.364 11.3844L22.1233 11.5792L22.1209 11.5811C21.4629 12.1221 20.2974 12.9053 18.8809 13.5565C17.6632 14.1162 16.221 14.5963 14.7294 14.7194C14.7501 14.4812 14.7501 14.2408 14.7501 14.0312V13.2113C15.9608 13.0891 17.1738 12.6902 18.2544 12.1935C19.5556 11.5954 20.6124 10.8798 21.1703 10.4208L21.1749 10.417L22.4968 9.34715C22.4658 8.43948 22.241 7.54799 21.6264 6.81723C20.741 5.76457 19.2229 5.25 16.9999 5.25H16.7501V5.174C16.7501 4.75047 16.7502 4.28788 16.6938 3.85619C16.6354 3.40889 16.5103 2.93401 16.2171 2.50983C15.6004 1.61749 14.4706 1.25 12.8001 1.25H11.2001C9.52962 1.25 8.39987 1.61749 7.78314 2.50983C7.48997 2.93401 7.36483 3.40889 7.30643 3.85619C7.25007 4.28789 7.25009 4.75048 7.25012 5.17401ZM8.79381 4.05038C8.75132 4.37577 8.75012 4.74554 8.75012 5.2V5.25H15.2501V5.2C15.2501 4.74554 15.2489 4.37577 15.2064 4.05038C15.1648 3.73174 15.09 3.51724 14.9831 3.36267C14.7999 3.09751 14.3296 2.75 12.8001 2.75H11.2001C9.67061 2.75 9.20036 3.09751 9.0171 3.36267C8.91027 3.51724 8.83541 3.73174 8.79381 4.05038ZM14.0001 13C14.0001 12.5 14.0001 12.25 13.8751 12.125C13.7501 12 13.5001 12 13.0001 12H11.0001C10.5001 12 10.2501 12 10.1251 12.125C10.0001 12.25 10.0001 12.5 10.0001 13V14.03C10.0001 15.12 10.0201 16 12.0001 16C13.9901 16 14.0001 15.11 14.0001 14.02V13Z" fill="#4B61DD"/>
</svg>
