<svg width="24" height="24" viewBox="0 0 24 24" fill="none" xmlns="http://www.w3.org/2000/svg">
<path d="M14.0001 14C17.2001 14 20.4312 12 21.6467 11L20.9501 18.43C20.7401 20.39 20.0201 22 16.0001 22H8.00007C3.98007 22 3.26007 20.39 3.05007 18.43L2.30007 10.43C2.03007 7.99 2.73007 6 7.00007 6H17.0001C21.2701 6 21.9701 7.99 21.7001 10.43L20.9501 18.43M3.05007 18.43L2.35358 11C3.56907 12 6.80007 14 10.0001 14M14.0001 14L14.0001 13C14.0001 12 14.0001 12 13.0001 12H11.0001C10.0001 12 10.0001 12 10.0001 13V14.03C10.0001 15.12 10.0201 16 12.0001 16C13.9901 16 14.0001 15.11 14.0001 14.02C14.0001 14.01 14.0001 14.01 14.0001 14ZM8.00006 6V5.2C8.00006 3.43 8.00006 2 11.2001 2H12.8001C16.0001 2 16.0001 3.43 16.0001 5.2V6" stroke="#626B79" stroke-width="1.5" stroke-miterlimit="10" stroke-linecap="round" stroke-linejoin="round"/>
</svg>
