<svg width="24" height="24" viewBox="0 0 24 24" fill="none" xmlns="http://www.w3.org/2000/svg">
<path d="M18.1199 2.34253C17.3129 2.21181 16.503 2.5578 15.6982 3.03852C14.8796 3.52759 13.8916 4.26857 12.6853 5.17331L11.2497 6.25L5.5 6.25C2.87665 6.25 0.750002 8.37665 0.750002 11C0.750002 13.6234 2.87665 15.75 5.5 15.75L11.2503 15.75L12.6852 16.8262C13.8916 17.731 14.8795 18.472 15.6983 18.961C16.503 19.4418 17.3129 19.7877 18.1199 19.657C18.4831 19.5982 18.75 19.2846 18.75 18.9167L18.75 3.08288C18.75 2.71496 18.4831 2.40137 18.1199 2.34253Z" fill="#4B61DD"/>
<path d="M20.25 14.675C21.9617 14.3275 23.25 12.8142 23.25 11C23.25 9.18578 21.9617 7.67246 20.25 7.32501L20.25 14.675Z" fill="#4B61DD"/>
<path d="M4.75 17.25L9.25 17.25L9.25 19.5001C9.25 20.7427 8.24264 21.7501 7 21.7501C5.75736 21.7501 4.75 20.7427 4.75 19.5001L4.75 17.25Z" fill="#4B61DD"/>
</svg>
