<svg width="24" height="24" viewBox="0 0 24 24" fill="none" xmlns="http://www.w3.org/2000/svg">
<path d="M11.5 6.99994L5.5 6.99994C3.29086 6.99994 1.5 8.79081 1.5 10.9999C1.5 13.2091 3.29086 14.9999 5.5 14.9999M11.5 6.99994L11.5 14.9999M11.5 6.99994L13.1 5.79977C15.8926 3.70534 17.2889 2.65813 18.3944 3.21092C19.5 3.7637 19.5 5.50906 19.5 8.99977L19.5 12.9998C19.5 16.4905 19.5 18.2358 18.3944 18.7886C17.2889 19.3414 15.8926 18.2942 13.1 16.1998L11.5 14.9999M11.5 14.9999L5.5 14.9999M5.5 14.9999L8.5 15L8.5 19.5001C8.5 20.3285 7.82843 21.0001 7 21.0001C6.17158 21.0001 5.5 20.3285 5.5 19.5001L5.5 14.9999ZM19.5 7.9998L19.5 13.9998C21.1569 13.9998 22.5 12.6567 22.5 10.9998C22.5 9.34295 21.1569 7.9998 19.5 7.9998Z" stroke="#626B79" stroke-width="1.5" stroke-linecap="round" stroke-linejoin="round"/>
</svg>
