<svg width="24" height="24" viewBox="0 0 24 24" fill="none" xmlns="http://www.w3.org/2000/svg">
<path fill-rule="evenodd" clip-rule="evenodd" d="M8 1.25C8.41421 1.25 8.75 1.58579 8.75 2V2.25906C8.93006 2.25297 9.11341 2.25 9.3 2.25H14.7C14.8866 2.25 15.0699 2.25297 15.25 2.25906V2C15.25 1.58579 15.5858 1.25 16 1.25C16.4142 1.25 16.75 1.58579 16.75 2V2.39744C18.1157 2.617 19.2321 3.09642 20.0678 3.93217C21.2898 5.15414 21.75 6.97603 21.75 9.3V14.7C21.75 17.024 21.2898 18.8459 20.0678 20.0678C18.8459 21.2898 17.024 21.75 14.7 21.75H9.3C6.97603 21.75 5.15414 21.2898 3.93217 20.0678C2.7102 18.8459 2.25 17.024 2.25 14.7V9.3C2.25 6.97603 2.7102 5.15414 3.93217 3.93217C4.76792 3.09642 5.8843 2.617 7.25 2.39744V2C7.25 1.58579 7.58579 1.25 8 1.25ZM6.25 8.5C6.25 8.08579 6.58579 7.75 7 7.75H17C17.4142 7.75 17.75 8.08579 17.75 8.5C17.75 8.91421 17.4142 9.25 17 9.25H7C6.58579 9.25 6.25 8.91421 6.25 8.5ZM15 16.75C14.5858 16.75 14.25 17.0858 14.25 17.5C14.25 17.9142 14.5858 18.25 15 18.25H17C17.4142 18.25 17.75 17.9142 17.75 17.5C17.75 17.0858 17.4142 16.75 17 16.75H15Z" fill="#4B61DD"/>
</svg>
