<svg width="24" height="24" viewBox="0 0 24 24" fill="none" xmlns="http://www.w3.org/2000/svg">
<path d="M6.51917 6.225C6.51917 3.343 8.86216 1 11.7442 1C14.6262 1 16.9692 3.343 16.9692 6.225C16.9582 9.052 14.7472 11.34 11.9312 11.439H11.8542C11.7882 11.428 11.7002 11.428 11.6122 11.439C8.73016 11.34 6.51917 9.052 6.51917 6.225Z" fill="#4B61DD"/>
<path d="M17.332 14.365C14.263 12.319 9.258 12.319 6.167 14.365C4.77 15.3 4 16.565 4 17.918C4 19.271 4.77 20.525 6.156 21.449C7.696 22.483 9.72 23 11.744 23C13.6371 23 15.5301 22.5477 17.0272 21.6432L16.3257 21.2238C16.1452 21.1174 15.8548 21.1174 15.6743 21.2238L14.6841 21.8087C13.9755 22.2297 13.5486 21.9151 13.7334 21.1085L13.9667 20.0848C14.0107 19.8943 13.9315 19.6239 13.795 19.4821L12.9808 18.6623C12.4967 18.1748 12.6551 17.6829 13.3285 17.5721L14.3804 17.3948C14.5564 17.3638 14.7677 17.2087 14.8469 17.0491L15.4278 15.8792C15.7403 15.241 16.2597 15.241 16.5721 15.8748L17.1531 17.0447C17.2323 17.2043 17.4436 17.3638 17.6196 17.3904L18.6715 17.5676C19.3449 17.6829 19.5033 18.1704 19.0192 18.6578L18.2006 19.4865C18.0641 19.6239 17.9849 19.8943 18.0289 20.0893L18.1822 20.7621C19.0291 19.9364 19.488 18.949 19.488 17.896C19.477 16.543 18.718 15.289 17.332 14.365Z" fill="#4B61DD"/>
<path d="M16.2534 17.2518L16.5615 17.8722C16.6035 17.9568 16.7155 18.0414 16.8089 18.0555L17.3667 18.1495C17.7238 18.2106 17.8078 18.4691 17.5511 18.7276L17.117 19.1671C17.0446 19.24 17.0026 19.3833 17.026 19.4867L17.1497 20.0296C17.2477 20.4573 17.0213 20.6242 16.6455 20.4009L16.1227 20.0883C16.027 20.0319 15.873 20.0319 15.7773 20.0883L15.2522 20.3986C14.8764 20.6218 14.65 20.455 14.748 20.0272L14.8717 19.4844C14.8951 19.3833 14.8531 19.24 14.7807 19.1647L14.3489 18.73C14.0922 18.4715 14.1762 18.2106 14.5333 18.1518L15.0911 18.0578C15.1845 18.0414 15.2965 17.9591 15.3385 17.8745L15.6466 17.2541C15.8123 16.9157 16.0877 16.9157 16.2534 17.2518Z" fill="#4B61DD"/>
</svg>
