<svg width="24" height="24" viewBox="0 0 24 24" fill="none" xmlns="http://www.w3.org/2000/svg">
<path d="M11.99 21.81C10.17 21.81 8.35998 21.35 6.97998 20.43C4.55998 18.81 4.55998 16.17 6.97998 14.56C9.72998 12.72 14.24 12.72 16.99 14.56M16.5183 16.4333L17.0462 17.4979C17.1182 17.6461 17.3102 17.7882 17.4722 17.8154L18.4291 17.9757C19.041 18.0786 19.185 18.5262 18.744 18.9677L18.0001 19.7178C17.8741 19.8448 17.8051 20.0898 17.8441 20.2652L18.0571 21.1937C18.2251 21.9287 17.8381 22.213 17.1932 21.8289L16.2963 21.2936C16.1343 21.1968 15.8673 21.1968 15.7024 21.2936L14.8055 21.8289C14.1635 22.213 13.7736 21.9257 13.9416 21.1937L14.1545 20.2652C14.1935 20.0898 14.1245 19.8448 13.9985 19.7178L13.2546 18.9677C12.8167 18.5262 12.9577 18.0786 13.5696 17.9757L14.5265 17.8154C14.6855 17.7882 14.8774 17.6461 14.9494 17.4979L15.4774 16.4333C15.7654 15.8556 16.2333 15.8556 16.5183 16.4333ZM12.16 10.87C12.06 10.86 11.94 10.86 11.83 10.87C9.44998 10.79 7.55998 8.84 7.55998 6.44C7.54998 3.99 9.53998 2 11.99 2C14.44 2 16.43 3.99 16.43 6.44C16.43 8.84 14.53 10.79 12.16 10.87Z" stroke="#626B79" stroke-width="1.5" stroke-linecap="round" stroke-linejoin="round"/>
</svg>
