<svg width="24" height="24" viewBox="0 0 24 24" fill="none" xmlns="http://www.w3.org/2000/svg">
<path d="M8.67801 4.26127C9.23389 3.70535 9.70899 3.23023 10.1387 2.87627C10.2001 2.8257 10.2606 2.77761 10.3202 2.7321C10.8238 2.34787 11.3559 2.07837 12 2.07837C12.5636 2.07837 13.0414 2.2847 13.4895 2.5937C13.5535 2.63784 13.6169 2.68407 13.6798 2.7321C14.1271 3.07338 14.6207 3.56035 15.2041 4.1434L22.5303 11.4696C22.8232 11.7625 22.8232 12.2374 22.5303 12.5303C22.2374 12.8232 21.7626 12.8232 21.4697 12.5303L19.7488 10.8094C19.7502 10.9781 19.7501 11.1551 19.75 11.3419V11.3423L19.75 15.0548C19.75 16.4224 19.75 17.5247 19.6335 18.3917C19.5125 19.2918 19.2536 20.0497 18.6516 20.6516C18.0497 21.2535 17.2919 21.5124 16.3918 21.6334C15.5248 21.75 14.4225 21.75 13.0549 21.7499H10.9451C9.57754 21.75 8.47522 21.75 7.60825 21.6334C6.70814 21.5124 5.95027 21.2535 5.34835 20.6516C4.74643 20.0497 4.48754 19.2918 4.36652 18.3917C4.24996 17.5247 4.24998 16.4224 4.25 15.0548L4.24995 11.3426C4.24987 11.1555 4.24978 10.9783 4.25116 10.8094L2.53033 12.5303C2.23744 12.8232 1.76256 12.8232 1.46967 12.5303C1.17678 12.2374 1.17678 11.7625 1.46967 11.4696L8.67801 4.26127Z" fill="#4B61DD"/>
</svg>
