<svg width="24" height="24" viewBox="0 0 24 24" fill="none" xmlns="http://www.w3.org/2000/svg">
<path d="M9.17157 4.82837L6.75736 7.24258C5.89027 8.10967 5.45672 8.54322 5.22836 9.09453C5 9.64585 5 10.259 5 11.4852V14.9999C5 17.8284 5 19.2426 5.87868 20.1213C6.75736 20.9999 8.17157 20.9999 11 20.9999H13C15.8284 20.9999 17.2426 20.9999 18.1213 20.1213C19 19.2426 19 17.8284 19 14.9999V11.4852C19 10.259 19 9.64585 18.7716 9.09453C18.5433 8.54322 18.1097 8.10967 17.2426 7.24258L14.8284 4.82837M2 11.9999L9.17157 4.82837C10.5049 3.49504 11.1716 2.82837 12 2.82837C12.8284 2.82837 13.4951 3.49504 14.8284 4.82837L22 11.9999" stroke="#626B79" stroke-width="1.5" stroke-linecap="round" stroke-linejoin="round"/>
</svg>
