<svg width="24" height="24" viewBox="0 0 24 24" fill="none" xmlns="http://www.w3.org/2000/svg">
<path fill-rule="evenodd" clip-rule="evenodd" d="M8 1.25C6.10705 1.25 4.63152 1.79462 3.6379 2.86466C2.65363 3.92465 2.25 5.38503 2.25 7V17C2.25 18.615 2.65363 20.0754 3.6379 21.1353C4.63152 22.2054 6.10705 22.75 8 22.75H12.2538C12.5332 22.75 12.7895 22.5947 12.9187 22.347C13.048 22.0993 13.0288 21.8002 12.869 21.5711C12.1636 20.5592 11.75 19.3293 11.75 18C11.75 16.0295 12.656 14.2663 14.0912 13.1275L14.0925 13.1265C15.1741 12.2644 16.5335 11.75 18 11.75C18.9602 11.75 19.8677 11.9657 20.6783 12.3506C20.9107 12.4609 21.1834 12.4444 21.4008 12.307C21.6182 12.1695 21.75 11.9303 21.75 11.6731V7C21.75 5.38503 21.3464 3.92465 20.3621 2.86466C19.3685 1.79462 17.893 1.25 16 1.25H8ZM14.5 3.75C14.9142 3.75 15.25 4.08579 15.25 4.5V6.5C15.25 7.18579 15.8142 7.75 16.5 7.75H18.5C18.9142 7.75 19.25 8.08579 19.25 8.5C19.25 8.91421 18.9142 9.25 18.5 9.25H16.5C14.9858 9.25 13.75 8.01421 13.75 6.5V4.5C13.75 4.08579 14.0858 3.75 14.5 3.75ZM8 12.25C7.58579 12.25 7.25 12.5858 7.25 13C7.25 13.4142 7.58579 13.75 8 13.75H9.5C9.91421 13.75 10.25 13.4142 10.25 13C10.25 12.5858 9.91421 12.25 9.5 12.25H8ZM7.25 17C7.25 16.5858 7.58579 16.25 8 16.25H8.5C8.91421 16.25 9.25 16.5858 9.25 17C9.25 17.4142 8.91421 17.75 8.5 17.75H8C7.58579 17.75 7.25 17.4142 7.25 17Z" fill="#4B61DD"/>
<path fill-rule="evenodd" clip-rule="evenodd" d="M18 13.25C16.8818 13.25 15.849 13.6429 15.0332 14.293C13.9387 15.1617 13.25 16.5058 13.25 18C13.25 20.6242 15.3758 22.75 18 22.75C19.2029 22.75 20.2956 22.2965 21.1333 21.5649L21.1353 21.5632C22.1189 20.6981 22.75 19.4265 22.75 18C22.75 15.3758 20.6242 13.25 18 13.25ZM18.25 16C18.6642 16 19 16.3358 19 16.75V18.25C19 18.5134 18.8618 18.7576 18.6359 18.8931L17.3859 19.6431C17.0307 19.8562 16.57 19.7411 16.3569 19.3859C16.1438 19.0307 16.2589 18.57 16.6141 18.3569L17.5 17.8254V16.75C17.5 16.3358 17.8358 16 18.25 16Z" fill="#4B61DD"/>
</svg>
