<svg width="24" height="24" viewBox="0 0 24 24" fill="none" xmlns="http://www.w3.org/2000/svg">
<path d="M21 12V7C21 4 19.5 2 16 2H8C4.5 2 3 4 3 7V17C3 20 4.5 22 8 22H12.5M14.5 4.5V6.5C14.5 7.6 15.4 8.5 16.5 8.5H18.5M8 13H12M8 17H11M18.25 16.75V18.25L17 19M22 18C22 19.2 21.47 20.27 20.64 21C19.93 21.62 19.01 22 18 22C15.79 22 14 20.21 14 18C14 16.74 14.58 15.61 15.5 14.88C16.19 14.33 17.06 14 18 14C20.21 14 22 15.79 22 18Z" stroke="#626B79" stroke-width="1.5" stroke-miterlimit="10" stroke-linecap="round" stroke-linejoin="round"/>
</svg>
