<svg width="24" height="24" viewBox="0 0 24 24" fill="none" xmlns="http://www.w3.org/2000/svg">
<path d="M5.06406 13.8488L5.69524 14.2539L5.69705 14.2511L5.06406 13.8488ZM3.84542 15.7474L3.21425 15.3423L3.21413 15.3425L3.84542 15.7474ZM4.98988 18.6599L4.76293 19.3748L4.76559 19.3756L4.98988 18.6599ZM19.0519 18.6599L18.8298 17.9436L18.8276 17.9442L19.0519 18.6599ZM20.1964 15.7474L20.8282 15.3433L20.8276 15.3423L20.1964 15.7474ZM18.9777 13.8488L18.3389 14.2417L18.3427 14.2479L18.3466 14.2539L18.9777 13.8488ZM13.2944 3.54159C13.4541 3.92379 13.8934 4.10419 14.2756 3.94451C14.6578 3.78484 14.8382 3.34556 14.6785 2.96336L13.9864 3.25248L13.2944 3.54159ZM9.37357 2.96336C9.2139 3.34556 9.39429 3.78484 9.77649 3.94451C10.1587 4.10419 10.598 3.92379 10.7576 3.54159L10.0656 3.25248L9.37357 2.96336ZM9.77959 21.1253L10.2927 20.5782L9.77959 21.1253ZM12.0262 2.96418V2.21418C8.15034 2.21418 4.91808 5.17944 4.91808 8.92836H5.66808H6.41808C6.41808 6.0968 8.88694 3.71418 12.0262 3.71418V2.96418ZM5.66808 8.92836H4.91808V11.8011H5.66808H6.41808V8.92836H5.66808ZM5.66808 11.8011H4.91808C4.91808 12.0079 4.86787 12.3153 4.77009 12.6457C4.67257 12.9752 4.54619 13.2654 4.43108 13.4465L5.06406 13.8488L5.69705 14.2511C5.91044 13.9153 6.08607 13.4848 6.20843 13.0713C6.33054 12.6587 6.41808 12.2006 6.41808 11.8011H5.66808ZM5.06406 13.8488L4.43289 13.4437L3.21425 15.3423L3.84542 15.7474L4.47659 16.1525L5.69523 14.2539L5.06406 13.8488ZM3.84542 15.7474L3.21413 15.3425C2.72227 16.1093 2.6154 16.9799 2.9213 17.7549C3.22468 18.5234 3.89412 19.0989 4.76293 19.3748L4.98988 18.6599L5.21684 17.9451C4.70806 17.7835 4.42908 17.4893 4.31653 17.2041C4.20651 16.9254 4.21619 16.5585 4.47671 16.1523L3.84542 15.7474ZM19.0519 18.6599L19.2741 19.3763C20.9903 18.8441 21.816 16.8876 20.8282 15.3433L20.1964 15.7474L19.5646 16.1515C19.9756 16.7941 19.678 17.6805 18.8298 17.9436L19.0519 18.6599ZM20.1964 15.7474L20.8276 15.3423L19.6089 13.4437L18.9777 13.8488L18.3466 14.2539L19.5652 16.1525L20.1964 15.7474ZM18.9777 13.8488L19.6166 13.4559C19.5034 13.2719 19.3783 12.9786 19.2817 12.648C19.1846 12.316 19.1343 12.0082 19.1343 11.8011H18.3843H17.6343C17.6343 12.2004 17.7218 12.658 17.842 13.069C17.9625 13.4814 18.1342 13.9089 18.3389 14.2417L18.9777 13.8488ZM18.3843 11.8011H19.1343V8.92836H18.3843H17.6343V11.8011H18.3843ZM18.3843 8.92836H19.1343C19.1343 5.18938 15.8915 2.21418 12.0262 2.21418V2.96418V3.71418C15.1549 3.71418 17.6343 6.10674 17.6343 8.92836H18.3843ZM10.0656 3.25248L10.7576 3.54159C10.9431 3.09765 11.4246 2.75 12.026 2.75V2V1.25C10.8471 1.25 9.80272 1.93615 9.37357 2.96336L10.0656 3.25248ZM12.026 2V2.75C12.6274 2.75 13.1089 3.09765 13.2944 3.54159L13.9864 3.25248L14.6785 2.96336C14.2493 1.93615 13.2049 1.25 12.026 1.25V2ZM12.0261 22V21.25C11.3494 21.25 10.7271 20.9857 10.2927 20.5782L9.77959 21.1253L9.26648 21.6723C9.97655 22.3383 10.9649 22.75 12.0261 22.75V22ZM15.1591 19.5239L14.4215 19.3881C14.2336 20.4082 13.2555 21.25 12.0261 21.25V22V22.75C13.9262 22.75 15.5684 21.4424 15.8967 19.6598L15.1591 19.5239ZM15.1591 19.5239L15.2588 20.2673C16.6159 20.0852 17.9605 19.788 19.2762 19.3756L19.0519 18.6599L18.8276 17.9442C17.5938 18.3309 16.3327 18.6097 15.0593 18.7806L15.1591 19.5239ZM4.98988 18.6599L4.76559 19.3756C6.0851 19.7891 7.43354 20.0869 8.7946 20.2688L8.89399 19.5255L8.99338 18.7821C7.71632 18.6113 6.45148 18.332 5.21418 17.9442L4.98988 18.6599ZM8.89399 19.5255L8.7946 20.2688C10.9388 20.5555 13.1147 20.555 15.2588 20.2673L15.1591 19.5239L15.0593 18.7806C13.0474 19.0506 11.0054 19.0511 8.99338 18.7821L8.89399 19.5255ZM9.77959 21.1253L10.2927 20.5782C9.95142 20.2581 9.71543 19.8399 9.63132 19.3882L8.89399 19.5255L8.15666 19.6627C8.30239 20.4455 8.70529 21.1458 9.26648 21.6723L9.77959 21.1253Z" fill="#626B79"/>
</svg>
