<svg width="24" height="24" viewBox="0 0 24 24" fill="none" xmlns="http://www.w3.org/2000/svg">
<path fill-rule="evenodd" clip-rule="evenodd" d="M6.24523 1.25C4.31373 1.25 2.75 2.81712 2.75 4.75477C2.75 6.64513 4.24224 8.18885 6.12573 8.24961L6.15874 8.25067C4.9391 8.26726 3.69163 8.59017 2.70759 9.25899L2.7058 9.26021C1.79442 9.8835 1.25 10.7762 1.25 11.7538C1.25 12.7317 1.79471 13.6224 2.70732 14.2408C3.7516 14.9542 5.09733 15.2736 6.39102 15.2486L7.56332 15.226L7.05123 14.1712C6.69874 13.4452 6.5003 12.6281 6.5 11.761C6.50489 10.8874 6.70889 10.0637 7.06824 9.33212L7.58689 8.27631L6.41083 8.25161L6.34576 8.25053L6.37427 8.24961C8.25776 8.18885 9.75 6.64513 9.75 4.75477C9.75 2.81542 8.18458 1.25 6.24523 1.25ZM6.29754 8.25011L6.25 8.24332L6.2017 8.25022C6.23367 8.24997 6.26562 8.24993 6.29754 8.25011Z" fill="#4B61DD"/>
<path fill-rule="evenodd" clip-rule="evenodd" d="M12.0047 7.75C9.78441 7.75 8.01158 9.54622 8.00001 11.7508L8 11.7547C8 13.917 9.70565 15.6795 11.8481 15.7496L11.8896 15.751C10.6776 15.7706 9.43734 16.0931 8.45758 16.759L8.4558 16.7602C7.54442 17.3835 7 18.2762 7 19.2538C7 20.2317 7.54471 21.1224 8.45732 21.7408C9.46458 22.4289 10.7517 22.75 12 22.75C13.2489 22.75 14.5366 22.4286 15.5441 21.7399C16.4555 21.1166 17 20.2238 17 19.2462C17 18.2687 16.4556 17.3782 15.5436 16.7598C14.5676 16.0895 13.3244 15.7676 12.1085 15.7507L12.1423 15.7496C14.2965 15.6795 15.9884 13.9157 16 11.7588L16 11.7547C16 9.5449 14.2134 7.75 12.0047 7.75ZM12.0735 15.7503L12.0246 15.7442C12.0144 15.7429 11.9891 15.7417 11.9557 15.7454L11.9082 15.7507C11.9413 15.7502 11.9744 15.75 12.0075 15.75L12.0735 15.7503Z" fill="#4B61DD"/>
<path fill-rule="evenodd" clip-rule="evenodd" d="M22.75 11.7462C22.75 10.7687 22.2057 9.87826 21.2936 9.25982C20.3151 8.58772 19.0673 8.26537 17.8455 8.25054L17.8743 8.24961C19.7578 8.18885 21.25 6.64513 21.25 4.75477C21.25 2.81542 19.6846 1.25 17.7452 1.25C15.8137 1.25 14.25 2.81712 14.25 4.75477C14.25 6.64513 15.7422 8.18885 17.6257 8.24961L17.6585 8.25067C17.6379 8.25094 17.6174 8.25131 17.5969 8.25176L16.4233 8.27757L16.9399 9.33162C17.298 10.0624 17.4997 10.885 17.5 11.757C17.495 12.6255 17.2943 13.4438 16.9407 14.1705L16.4279 15.2243L17.5997 15.2484C18.8969 15.2752 20.2472 14.9556 21.2941 14.2399C22.2055 13.6166 22.75 12.7238 22.75 11.7462ZM17.7017 8.25021C17.7337 8.24997 17.7656 8.24994 17.7976 8.25011L17.75 8.24332L17.7017 8.25021Z" fill="#4B61DD"/>
</svg>
