<svg width="24" height="24" viewBox="0 0 24 24" fill="none" xmlns="http://www.w3.org/2000/svg">
<path d="M16.4907 2.24023C14.823 1.75213 13.4381 1.68095 12.4719 2.3763C11.4917 3.08176 11.25 4.35015 11.25 5.68004V8.56004C11.25 9.86054 11.5129 10.9424 12.1928 11.697C12.8886 12.4694 13.8836 12.75 15 12.75H18.32C19.6499 12.75 20.9183 12.5084 21.6237 11.5281C22.3191 10.562 22.2479 9.17706 21.7598 7.50936C21.0379 5.05473 18.9453 2.96219 16.4907 2.24023Z" fill="#4B61DD"/>
<path d="M9.76021 4.09363C9.76929 3.85978 9.6687 3.6351 9.48822 3.48612C9.30775 3.33715 9.06807 3.28095 8.84018 3.33418C3.98983 4.46712 0.519376 9.19778 1.37954 14.5393L1.37983 14.5411C2.05174 18.6484 5.35056 21.9485 9.45979 22.6103C14.8063 23.4785 19.5243 20.011 20.666 15.1655C20.7197 14.9375 20.6638 14.6975 20.5149 14.5166C20.366 14.3358 20.1411 14.235 19.9071 14.244C19.7318 14.2508 19.5504 14.2541 19.3628 14.2541H13.9191C12.3958 14.2541 11.411 13.8748 10.787 13.1821C10.147 12.4718 9.75 11.2835 9.75 9.36356V4.64125C9.75 4.4525 9.75336 4.26997 9.76021 4.09363Z" fill="#4B61DD"/>
</svg>
