<svg width="24" height="24" viewBox="0 0 24 24" fill="none" xmlns="http://www.w3.org/2000/svg">
<path fill-rule="evenodd" clip-rule="evenodd" d="M7.5895 2.14169C8.74854 1.45656 10.2187 1.8769 10.8904 3.00601L10.895 3.01367L11.0049 3.2036L11.0065 3.20638C11.3763 3.85145 11.7619 4.00629 11.9963 4.00629C12.2317 4.00629 12.6204 3.85008 12.9953 3.20328L13.1095 3.00598C13.7813 1.87686 15.2515 1.45656 16.4105 2.1417L18.1342 3.1281C19.4064 3.85505 19.8378 5.48555 19.1112 6.74319L19.1106 6.74409C18.7359 7.39056 18.7948 7.80342 18.9117 8.00625C19.0286 8.2092 19.3562 8.46656 20.101 8.46656C21.5521 8.46656 22.75 9.64936 22.75 11.1156V12.8747C22.75 14.3259 21.5672 15.5238 20.101 15.5238C19.3562 15.5238 19.0286 15.7811 18.9117 15.9841C18.7948 16.1869 18.7359 16.5998 19.1106 17.2463L19.113 17.2502C19.8359 18.5154 19.4074 20.1344 18.1346 20.862L16.4105 21.8487C15.2515 22.5338 13.7813 22.1135 13.1096 20.9843L13.105 20.9767L12.9951 20.7867L12.9935 20.784C12.6237 20.1389 12.2381 19.9841 12.0037 19.9841C11.7683 19.9841 11.3797 20.1402 11.0049 20.7867L10.8905 20.9844C10.2187 22.1135 8.74853 22.5338 7.5895 21.8487L5.86578 20.8622C4.59392 20.1352 4.16227 18.5047 4.88883 17.2471L4.88935 17.2463C5.26406 16.5998 5.20519 16.1869 5.08831 15.9841C4.97136 15.7811 4.64381 15.5238 3.89905 15.5238C2.4328 15.5238 1.25 14.3259 1.25 12.8747V11.1156C1.25 9.66449 2.4328 8.46656 3.89905 8.46656C4.64381 8.46656 4.97136 8.2092 5.08831 8.00626C5.20519 7.80342 5.26406 7.39056 4.88935 6.74409L4.88883 6.74319C4.16227 5.48569 4.59351 3.8554 5.86537 3.12833L7.5895 2.14169ZM14.9935 11.9953C14.9935 13.6514 13.651 14.9938 11.995 14.9938C10.339 14.9938 8.99649 13.6514 8.99649 11.9953C8.99649 10.3393 10.339 8.99683 11.995 8.99683C13.651 8.99683 14.9935 10.3393 14.9935 11.9953Z" fill="#4B61DD"/>
</svg>
