<svg width="24" height="24" viewBox="0 0 24 24" fill="none" xmlns="http://www.w3.org/2000/svg">
<path d="M2.4 4.8C3.72549 4.8 4.8 3.72549 4.8 2.4C4.8 1.07452 3.72549 0 2.4 0C1.07452 0 0 1.07452 0 2.4C0 3.72549 1.07452 4.8 2.4 4.8Z" fill="#2F5573"/>
<path d="M12 4.8C13.3255 4.8 14.4 3.72549 14.4 2.4C14.4 1.07452 13.3255 0 12 0C10.6745 0 9.60001 1.07452 9.60001 2.4C9.60001 3.72549 10.6745 4.8 12 4.8Z" fill="#00C853"/>
<path d="M24 2.4C24 3.72549 22.9255 4.8 21.6 4.8C20.2745 4.8 19.2 3.72549 19.2 2.4C19.2 1.07452 20.2745 0 21.6 0C22.9255 0 24 1.07452 24 2.4Z" fill="#183883"/>
<path d="M2.4 14.4C3.72549 14.4 4.8 13.3255 4.8 12C4.8 10.6745 3.72549 9.6 2.4 9.6C1.07452 9.6 0 10.6745 0 12C0 13.3255 1.07452 14.4 2.4 14.4Z" fill="#7C4DFF"/>
<path d="M12 14.4C13.3255 14.4 14.4 13.3255 14.4 12C14.4 10.6745 13.3255 9.6 12 9.6C10.6745 9.6 9.60001 10.6745 9.60001 12C9.60001 13.3255 10.6745 14.4 12 14.4Z" fill="#40C3FF"/>
<path d="M24 12C24 13.3255 22.9255 14.4 21.6 14.4C20.2745 14.4 19.2 13.3255 19.2 12C19.2 10.6745 20.2745 9.6 21.6 9.6C22.9255 9.6 24 10.6745 24 12Z" fill="#FF9100"/>
<path d="M4.8 21.6C4.8 22.9255 3.72549 24 2.4 24C1.07452 24 0 22.9255 0 21.6C0 20.2745 1.07452 19.2 2.4 19.2C3.72549 19.2 4.8 20.2745 4.8 21.6Z" fill="#2979FF"/>
<path d="M14.4 21.6C14.4 22.9255 13.3255 24 12 24C10.6745 24 9.60001 22.9255 9.60001 21.6C9.60001 20.2745 10.6745 19.2 12 19.2C13.3255 19.2 14.4 20.2745 14.4 21.6Z" fill="#F22929"/>
<path d="M21.6 24C22.9255 24 24 22.9255 24 21.6C24 20.2745 22.9255 19.2 21.6 19.2C20.2745 19.2 19.2 20.2745 19.2 21.6C19.2 22.9255 20.2745 24 21.6 24Z" fill="#448AFF"/>
</svg>
