<svg width="24" height="24" viewBox="0 0 24 24" fill="none" xmlns="http://www.w3.org/2000/svg">
<path fill-rule="evenodd" clip-rule="evenodd" d="M9 22H15C20 22 22 20 22 15V9C22 4 20 2 15 2H9C4 2 2 4 2 9V15C2 20 4 22 9 22ZM10.8701 8.88C10.8701 8.05158 11.5417 7.38 12.3701 7.38H17.6201C18.4485 7.38 19.1201 8.05158 19.1201 8.88C19.1201 9.70843 18.4485 10.38 17.6201 10.38H12.3701C11.5417 10.38 10.8701 9.70843 10.8701 8.88ZM10.4405 6.31934C9.85476 5.73356 8.90501 5.73356 8.31922 6.31934L7.08366 7.55491C6.51665 7.2535 5.79692 7.34165 5.31922 7.81934C4.73344 8.40513 4.73344 9.35488 5.31922 9.94067L6.06922 10.6907C6.65501 11.2765 7.60476 11.2765 8.19054 10.6907L10.4405 8.44067C11.0263 7.85488 11.0263 6.90513 10.4405 6.31934ZM10.8701 15.88C10.8701 15.0516 11.5417 14.38 12.3701 14.38H17.6201C18.4485 14.38 19.1201 15.0516 19.1201 15.88C19.1201 16.7084 18.4485 17.38 17.6201 17.38H12.3701C11.5417 17.38 10.8701 16.7084 10.8701 15.88ZM8.19054 17.6907L10.4405 15.4407C11.0263 14.8549 11.0263 13.9051 10.4405 13.3193C9.85476 12.7336 8.90501 12.7336 8.31922 13.3193L7.08366 14.5549C6.51664 14.2535 5.79692 14.3417 5.31922 14.8193C4.73344 15.4051 4.73344 16.3549 5.31922 16.9407L6.06922 17.6907C6.65501 18.2765 7.60476 18.2765 8.19054 17.6907Z" fill="#4B61DD" stroke="#4B61DD" stroke-width="1.5" stroke-linecap="round" stroke-linejoin="round"/>
</svg>
